<mxfile host="app.diagrams.net" agent="Mozilla/5.0 (Windows NT 10.0; Win64; x64) AppleWebKit/537.36 (KHTML, like Gecko) Chrome/140.0.0.0 Safari/537.36" version="28.2.4">
  <diagram name="Trang-1" id="G7Xoiidab_qgMWEizpXd">
    <mxGraphModel dx="1826" dy="343" grid="1" gridSize="10" guides="1" tooltips="1" connect="1" arrows="1" fold="1" page="0" pageScale="1" pageWidth="827" pageHeight="1169" math="0" shadow="0">
      <root>
        <mxCell id="0" />
        <mxCell id="1" parent="0" />
        <mxCell id="H2Xq3nzaXT5pQX02Xz_h-6" style="edgeStyle=orthogonalEdgeStyle;rounded=0;orthogonalLoop=1;jettySize=auto;html=1;exitX=0.5;exitY=1;exitDx=0;exitDy=0;" edge="1" parent="1" source="H2Xq3nzaXT5pQX02Xz_h-1" target="H2Xq3nzaXT5pQX02Xz_h-5">
          <mxGeometry relative="1" as="geometry" />
        </mxCell>
        <mxCell id="H2Xq3nzaXT5pQX02Xz_h-23" style="edgeStyle=orthogonalEdgeStyle;rounded=0;orthogonalLoop=1;jettySize=auto;html=1;entryX=0;entryY=0.5;entryDx=0;entryDy=0;" edge="1" parent="1" source="H2Xq3nzaXT5pQX02Xz_h-1" target="H2Xq3nzaXT5pQX02Xz_h-2">
          <mxGeometry relative="1" as="geometry" />
        </mxCell>
        <mxCell id="H2Xq3nzaXT5pQX02Xz_h-1" value="Đọc pdf&lt;div&gt;pdfplumber&lt;/div&gt;&lt;div&gt;pdfreader&amp;nbsp;&lt;/div&gt;" style="ellipse;whiteSpace=wrap;html=1;" vertex="1" parent="1">
          <mxGeometry x="80" y="560" width="120" height="80" as="geometry" />
        </mxCell>
        <mxCell id="H2Xq3nzaXT5pQX02Xz_h-13" style="edgeStyle=orthogonalEdgeStyle;rounded=0;orthogonalLoop=1;jettySize=auto;html=1;entryX=0;entryY=0.5;entryDx=0;entryDy=0;" edge="1" parent="1" source="H2Xq3nzaXT5pQX02Xz_h-2" target="H2Xq3nzaXT5pQX02Xz_h-10">
          <mxGeometry relative="1" as="geometry" />
        </mxCell>
        <mxCell id="H2Xq3nzaXT5pQX02Xz_h-20" style="edgeStyle=orthogonalEdgeStyle;rounded=0;orthogonalLoop=1;jettySize=auto;html=1;entryX=0;entryY=0.5;entryDx=0;entryDy=0;" edge="1" parent="1" source="H2Xq3nzaXT5pQX02Xz_h-2" target="H2Xq3nzaXT5pQX02Xz_h-15">
          <mxGeometry relative="1" as="geometry" />
        </mxCell>
        <mxCell id="H2Xq3nzaXT5pQX02Xz_h-2" value="Embedding model&amp;nbsp;" style="ellipse;whiteSpace=wrap;html=1;" vertex="1" parent="1">
          <mxGeometry x="260" y="560" width="120" height="80" as="geometry" />
        </mxCell>
        <mxCell id="H2Xq3nzaXT5pQX02Xz_h-5" value="Kiểm tra DB" style="ellipse;whiteSpace=wrap;html=1;" vertex="1" parent="1">
          <mxGeometry x="75" y="860" width="130" height="80" as="geometry" />
        </mxCell>
        <mxCell id="H2Xq3nzaXT5pQX02Xz_h-26" style="edgeStyle=orthogonalEdgeStyle;rounded=0;orthogonalLoop=1;jettySize=auto;html=1;entryX=0.5;entryY=1;entryDx=0;entryDy=0;" edge="1" parent="1" source="H2Xq3nzaXT5pQX02Xz_h-7" target="H2Xq3nzaXT5pQX02Xz_h-24">
          <mxGeometry relative="1" as="geometry" />
        </mxCell>
        <mxCell id="H2Xq3nzaXT5pQX02Xz_h-7" value="Database&lt;div&gt;(ChromaDB, SQLite, SQLAlchemy)&lt;/div&gt;" style="whiteSpace=wrap;html=1;aspect=fixed;" vertex="1" parent="1">
          <mxGeometry x="360" y="790" width="160" height="160" as="geometry" />
        </mxCell>
        <mxCell id="H2Xq3nzaXT5pQX02Xz_h-10" value="vetorDB" style="ellipse;whiteSpace=wrap;html=1;" vertex="1" parent="1">
          <mxGeometry x="380" y="660" width="120" height="80" as="geometry" />
        </mxCell>
        <mxCell id="H2Xq3nzaXT5pQX02Xz_h-14" style="edgeStyle=orthogonalEdgeStyle;rounded=0;orthogonalLoop=1;jettySize=auto;html=1;entryX=0;entryY=0.688;entryDx=0;entryDy=0;entryPerimeter=0;" edge="1" parent="1" source="H2Xq3nzaXT5pQX02Xz_h-5" target="H2Xq3nzaXT5pQX02Xz_h-7">
          <mxGeometry relative="1" as="geometry" />
        </mxCell>
        <mxCell id="H2Xq3nzaXT5pQX02Xz_h-25" style="edgeStyle=orthogonalEdgeStyle;rounded=0;orthogonalLoop=1;jettySize=auto;html=1;entryX=0;entryY=0.5;entryDx=0;entryDy=0;" edge="1" parent="1" source="H2Xq3nzaXT5pQX02Xz_h-15" target="H2Xq3nzaXT5pQX02Xz_h-24">
          <mxGeometry relative="1" as="geometry" />
        </mxCell>
        <mxCell id="H2Xq3nzaXT5pQX02Xz_h-15" value="Call model For Response" style="ellipse;whiteSpace=wrap;html=1;" vertex="1" parent="1">
          <mxGeometry x="430" y="560" width="120" height="80" as="geometry" />
        </mxCell>
        <mxCell id="H2Xq3nzaXT5pQX02Xz_h-16" value="Lọc qua decoder&lt;div&gt;&amp;nbsp;utf-8&lt;/div&gt;" style="ellipse;whiteSpace=wrap;html=1;" vertex="1" parent="1">
          <mxGeometry x="-100" y="550" width="120" height="80" as="geometry" />
        </mxCell>
        <mxCell id="H2Xq3nzaXT5pQX02Xz_h-21" style="edgeStyle=orthogonalEdgeStyle;rounded=0;orthogonalLoop=1;jettySize=auto;html=1;entryX=0;entryY=0.5;entryDx=0;entryDy=0;" edge="1" parent="1" source="H2Xq3nzaXT5pQX02Xz_h-18" target="H2Xq3nzaXT5pQX02Xz_h-16">
          <mxGeometry relative="1" as="geometry" />
        </mxCell>
        <mxCell id="H2Xq3nzaXT5pQX02Xz_h-18" value="Đầu vào FIle PDF" style="ellipse;whiteSpace=wrap;html=1;" vertex="1" parent="1">
          <mxGeometry x="-280" y="550" width="120" height="80" as="geometry" />
        </mxCell>
        <mxCell id="H2Xq3nzaXT5pQX02Xz_h-22" style="edgeStyle=orthogonalEdgeStyle;rounded=0;orthogonalLoop=1;jettySize=auto;html=1;entryX=0;entryY=0.375;entryDx=0;entryDy=0;entryPerimeter=0;" edge="1" parent="1" source="H2Xq3nzaXT5pQX02Xz_h-16" target="H2Xq3nzaXT5pQX02Xz_h-1">
          <mxGeometry relative="1" as="geometry" />
        </mxCell>
        <mxCell id="H2Xq3nzaXT5pQX02Xz_h-30" style="edgeStyle=orthogonalEdgeStyle;rounded=0;orthogonalLoop=1;jettySize=auto;html=1;entryX=0;entryY=0.5;entryDx=0;entryDy=0;" edge="1" parent="1" source="H2Xq3nzaXT5pQX02Xz_h-24" target="H2Xq3nzaXT5pQX02Xz_h-29">
          <mxGeometry relative="1" as="geometry" />
        </mxCell>
        <mxCell id="H2Xq3nzaXT5pQX02Xz_h-24" value="RetrievalQA" style="ellipse;whiteSpace=wrap;html=1;" vertex="1" parent="1">
          <mxGeometry x="630" y="560" width="120" height="80" as="geometry" />
        </mxCell>
        <mxCell id="H2Xq3nzaXT5pQX02Xz_h-28" style="edgeStyle=orthogonalEdgeStyle;rounded=0;orthogonalLoop=1;jettySize=auto;html=1;entryX=0.5;entryY=0;entryDx=0;entryDy=0;" edge="1" parent="1" source="H2Xq3nzaXT5pQX02Xz_h-27" target="H2Xq3nzaXT5pQX02Xz_h-24">
          <mxGeometry relative="1" as="geometry" />
        </mxCell>
        <mxCell id="H2Xq3nzaXT5pQX02Xz_h-27" value="Wrapper" style="ellipse;whiteSpace=wrap;html=1;" vertex="1" parent="1">
          <mxGeometry x="630" y="440" width="120" height="80" as="geometry" />
        </mxCell>
        <mxCell id="H2Xq3nzaXT5pQX02Xz_h-47" style="edgeStyle=orthogonalEdgeStyle;rounded=0;orthogonalLoop=1;jettySize=auto;html=1;" edge="1" parent="1" source="H2Xq3nzaXT5pQX02Xz_h-29" target="H2Xq3nzaXT5pQX02Xz_h-46">
          <mxGeometry relative="1" as="geometry" />
        </mxCell>
        <mxCell id="H2Xq3nzaXT5pQX02Xz_h-49" style="edgeStyle=orthogonalEdgeStyle;rounded=0;orthogonalLoop=1;jettySize=auto;html=1;exitX=1;exitY=0;exitDx=0;exitDy=0;entryX=0;entryY=1;entryDx=0;entryDy=0;" edge="1" parent="1" source="H2Xq3nzaXT5pQX02Xz_h-29" target="H2Xq3nzaXT5pQX02Xz_h-48">
          <mxGeometry relative="1" as="geometry" />
        </mxCell>
        <mxCell id="H2Xq3nzaXT5pQX02Xz_h-29" value="Define func for answer" style="ellipse;whiteSpace=wrap;html=1;" vertex="1" parent="1">
          <mxGeometry x="820" y="560" width="120" height="80" as="geometry" />
        </mxCell>
        <mxCell id="H2Xq3nzaXT5pQX02Xz_h-33" value="" style="endArrow=none;html=1;rounded=0;exitX=0.5;exitY=0;exitDx=0;exitDy=0;" edge="1" parent="1" source="H2Xq3nzaXT5pQX02Xz_h-15">
          <mxGeometry width="50" height="50" relative="1" as="geometry">
            <mxPoint x="870" y="830" as="sourcePoint" />
            <mxPoint x="490" y="480" as="targetPoint" />
          </mxGeometry>
        </mxCell>
        <mxCell id="H2Xq3nzaXT5pQX02Xz_h-34" value="" style="endArrow=classic;html=1;rounded=0;entryX=0;entryY=0.5;entryDx=0;entryDy=0;" edge="1" parent="1" target="H2Xq3nzaXT5pQX02Xz_h-27">
          <mxGeometry width="50" height="50" relative="1" as="geometry">
            <mxPoint x="490" y="480" as="sourcePoint" />
            <mxPoint x="920" y="780" as="targetPoint" />
          </mxGeometry>
        </mxCell>
        <mxCell id="H2Xq3nzaXT5pQX02Xz_h-37" style="edgeStyle=orthogonalEdgeStyle;rounded=0;orthogonalLoop=1;jettySize=auto;html=1;" edge="1" parent="1" source="H2Xq3nzaXT5pQX02Xz_h-35" target="H2Xq3nzaXT5pQX02Xz_h-36">
          <mxGeometry relative="1" as="geometry" />
        </mxCell>
        <mxCell id="H2Xq3nzaXT5pQX02Xz_h-35" value="User" style="rounded=0;whiteSpace=wrap;html=1;" vertex="1" parent="1">
          <mxGeometry x="1050" y="880" width="120" height="60" as="geometry" />
        </mxCell>
        <mxCell id="H2Xq3nzaXT5pQX02Xz_h-41" style="edgeStyle=orthogonalEdgeStyle;rounded=0;orthogonalLoop=1;jettySize=auto;html=1;entryX=0;entryY=0.5;entryDx=0;entryDy=0;" edge="1" parent="1" source="H2Xq3nzaXT5pQX02Xz_h-36" target="H2Xq3nzaXT5pQX02Xz_h-40">
          <mxGeometry relative="1" as="geometry" />
        </mxCell>
        <mxCell id="H2Xq3nzaXT5pQX02Xz_h-36" value="Textbox" style="rounded=0;whiteSpace=wrap;html=1;" vertex="1" parent="1">
          <mxGeometry x="1250" y="880" width="120" height="60" as="geometry" />
        </mxCell>
        <mxCell id="H2Xq3nzaXT5pQX02Xz_h-38" value="Nhập" style="text;html=1;align=center;verticalAlign=middle;whiteSpace=wrap;rounded=0;" vertex="1" parent="1">
          <mxGeometry x="1180" y="880" width="60" height="30" as="geometry" />
        </mxCell>
        <mxCell id="H2Xq3nzaXT5pQX02Xz_h-45" style="edgeStyle=orthogonalEdgeStyle;rounded=0;orthogonalLoop=1;jettySize=auto;html=1;" edge="1" parent="1" source="H2Xq3nzaXT5pQX02Xz_h-40">
          <mxGeometry relative="1" as="geometry">
            <mxPoint x="1510" y="1009.9999999999998" as="targetPoint" />
          </mxGeometry>
        </mxCell>
        <mxCell id="H2Xq3nzaXT5pQX02Xz_h-40" value="Submit button" style="rounded=0;whiteSpace=wrap;html=1;" vertex="1" parent="1">
          <mxGeometry x="1450" y="880" width="120" height="60" as="geometry" />
        </mxCell>
        <mxCell id="H2Xq3nzaXT5pQX02Xz_h-42" value="click" style="text;html=1;align=center;verticalAlign=middle;whiteSpace=wrap;rounded=0;" vertex="1" parent="1">
          <mxGeometry x="1370" y="885" width="60" height="30" as="geometry" />
        </mxCell>
        <mxCell id="H2Xq3nzaXT5pQX02Xz_h-51" style="edgeStyle=orthogonalEdgeStyle;rounded=0;orthogonalLoop=1;jettySize=auto;html=1;entryX=0.5;entryY=0;entryDx=0;entryDy=0;" edge="1" parent="1" source="H2Xq3nzaXT5pQX02Xz_h-44" target="H2Xq3nzaXT5pQX02Xz_h-50">
          <mxGeometry relative="1" as="geometry" />
        </mxCell>
        <mxCell id="H2Xq3nzaXT5pQX02Xz_h-53" style="edgeStyle=orthogonalEdgeStyle;rounded=0;orthogonalLoop=1;jettySize=auto;html=1;entryX=0.5;entryY=0;entryDx=0;entryDy=0;" edge="1" parent="1" source="H2Xq3nzaXT5pQX02Xz_h-44" target="H2Xq3nzaXT5pQX02Xz_h-52">
          <mxGeometry relative="1" as="geometry" />
        </mxCell>
        <mxCell id="H2Xq3nzaXT5pQX02Xz_h-44" value="Respond&lt;div&gt;invoke RAG&lt;/div&gt;&lt;div&gt;Upd History&lt;/div&gt;&lt;div&gt;Collect Src&lt;/div&gt;" style="whiteSpace=wrap;html=1;aspect=fixed;" vertex="1" parent="1">
          <mxGeometry x="1430" y="1010" width="160" height="160" as="geometry" />
        </mxCell>
        <mxCell id="H2Xq3nzaXT5pQX02Xz_h-46" value="Source" style="ellipse;whiteSpace=wrap;html=1;" vertex="1" parent="1">
          <mxGeometry x="1030" y="560" width="120" height="80" as="geometry" />
        </mxCell>
        <mxCell id="H2Xq3nzaXT5pQX02Xz_h-48" value="Answer" style="ellipse;whiteSpace=wrap;html=1;" vertex="1" parent="1">
          <mxGeometry x="960" y="480" width="120" height="80" as="geometry" />
        </mxCell>
        <mxCell id="H2Xq3nzaXT5pQX02Xz_h-50" value="Chatbot UI" style="rounded=0;whiteSpace=wrap;html=1;" vertex="1" parent="1">
          <mxGeometry x="1260" y="1210" width="120" height="60" as="geometry" />
        </mxCell>
        <mxCell id="H2Xq3nzaXT5pQX02Xz_h-52" value="Source Box UI" style="rounded=0;whiteSpace=wrap;html=1;" vertex="1" parent="1">
          <mxGeometry x="1620" y="1210" width="120" height="60" as="geometry" />
        </mxCell>
        <mxCell id="H2Xq3nzaXT5pQX02Xz_h-54" value="&lt;h1 style=&quot;margin-top: 0px;&quot;&gt;Clear button&lt;/h1&gt;&lt;p&gt;Reset chat,&amp;nbsp;&lt;/p&gt;&lt;p&gt;Reset sources,&lt;/p&gt;&lt;p&gt;Reset question.&lt;/p&gt;" style="text;html=1;whiteSpace=wrap;overflow=hidden;rounded=0;" vertex="1" parent="1">
          <mxGeometry x="1250" y="1300" width="180" height="120" as="geometry" />
        </mxCell>
        <mxCell id="H2Xq3nzaXT5pQX02Xz_h-55" value="&lt;h1 style=&quot;margin-top: 0px;&quot;&gt;Flag button&lt;/h1&gt;&lt;p&gt;dont know what to do here now&lt;/p&gt;" style="text;html=1;whiteSpace=wrap;overflow=hidden;rounded=0;" vertex="1" parent="1">
          <mxGeometry x="1620" y="1300" width="180" height="120" as="geometry" />
        </mxCell>
        <mxCell id="H2Xq3nzaXT5pQX02Xz_h-57" style="edgeStyle=orthogonalEdgeStyle;rounded=0;orthogonalLoop=1;jettySize=auto;html=1;entryX=0;entryY=0;entryDx=0;entryDy=0;" edge="1" parent="1" source="H2Xq3nzaXT5pQX02Xz_h-56" target="H2Xq3nzaXT5pQX02Xz_h-15">
          <mxGeometry relative="1" as="geometry" />
        </mxCell>
        <mxCell id="H2Xq3nzaXT5pQX02Xz_h-56" value=".env lưu api, model" style="ellipse;whiteSpace=wrap;html=1;" vertex="1" parent="1">
          <mxGeometry x="260" y="410" width="120" height="80" as="geometry" />
        </mxCell>
        <mxCell id="H2Xq3nzaXT5pQX02Xz_h-59" style="edgeStyle=orthogonalEdgeStyle;rounded=0;orthogonalLoop=1;jettySize=auto;html=1;entryX=0.5;entryY=0;entryDx=0;entryDy=0;" edge="1" parent="1" source="H2Xq3nzaXT5pQX02Xz_h-10" target="H2Xq3nzaXT5pQX02Xz_h-7">
          <mxGeometry relative="1" as="geometry">
            <mxPoint x="440" y="780" as="targetPoint" />
          </mxGeometry>
        </mxCell>
      </root>
    </mxGraphModel>
  </diagram>
</mxfile>
